# This file uses centimeters as units for non-parametric coordinates.

mtllib debug_forward_pointer_big.mtl
g default
v 0.071813 0.000000 0.000000
v -0.071813 0.000000 0.000000
v 0.000000 0.000000 0.235068
v 0.000000 0.423941 0.000000
v 0.000000 0.000000 0.120000
vt -0.000000 0.000000
vt 1.000000 0.055787
vt 0.000000 1.000000
vt -0.000000 0.235153
vt 1.000000 -0.000000
vt 1.000000 1.000000
vt 0.000000 -0.000000
vt 1.000000 0.235153
vt 0.000000 1.000000
vt 0.000000 0.000000
vt 1.000000 0.170724
vt 0.244754 0.552277
vt 0.000000 1.000000
vn 0.000000 0.000000 -1.000000
vn 0.000000 0.000000 -1.000000
vn 0.000000 0.000000 -1.000000
vn -0.944059 0.159917 0.288407
vn -0.944059 0.159917 0.288407
vn -0.944059 0.159917 0.288407
vn 0.944059 0.159917 0.288407
vn 0.944059 0.159917 0.288407
vn 0.944059 0.159917 0.288407
vn 0.000000 -1.000000 0.000000
vn 0.000000 -1.000000 0.000000
vn 0.000000 -1.000000 0.000000
vn 0.000000 -1.000000 0.000000
vn 0.000000 -1.000000 0.000000
vn 0.000000 -1.000000 0.000000
vn 0.000000 -1.000000 0.000000
vn 0.000000 -1.000000 0.000000
vn 0.000000 -1.000000 0.000000
s off
g debug_forward_pointer:pCylinder1
usemtl debug_forward_pointer:lambert2SG
f 1/1/1 2/2/2 4/3/3
f 2/4/4 3/5/5 4/6/6
f 3/7/7 1/8/8 4/9/9
f 2/10/10 1/11/11 5/12/12
f 3/13/13 2/10/14 5/12/15
f 1/11/16 3/13/17 5/12/18
